<svg xmlns="http://www.w3.org/2000/svg" width="32" height="32" viewBox="0 0 32 32">
  <style>
    .shield { fill: #c08030; }
    @media (prefers-color-scheme: dark) {
      .shield { fill: #e0a050; }
    }
  </style>
  <path class="shield" d="M16 1 L28 7 L28 17.5 C28 24 22.5 29 16 31 C9.5 29 4 24 4 17.5 L4 7 Z"/>
  <path d="M19.2 11.2 C19.2 10 18.5 9 17.2 8.5 C16.3 8.1 15.2 8 14.2 8.3 C12.5 8.8 11.8 10 12 11.2 C12.2 12.1 13 12.8 14.2 13.2 L17 14.2 C18.5 14.7 19.5 15.5 19.8 16.8 C20.2 18.7 19.2 20.4 17.2 21.2 C15.8 21.7 14.2 21.7 12.8 21.2 C11.5 20.7 10.8 19.7 10.8 18.4" fill="none" stroke="white" stroke-width="2.2" stroke-linecap="round"/>
</svg>
